<svg xmlns="http://www.w3.org/2000/svg" width="134.923" height="145"><g stroke="#000" stroke-width="2"><path stroke="none" d="M88 0h46.923v29H88z"/><path fill="none" d="M89 1h44.923v27H89z"/></g><g stroke="#000" stroke-width="2"><path stroke="none" d="M88 58h46.923v29H88z"/><path fill="none" d="M89 59h44.923v27H89z"/></g><g stroke="#000" stroke-width="2"><path stroke="none" d="M88 116h46.923v29H88z"/><path fill="none" d="M89 117h44.923v27H89z"/></g><path d="M88.615 144H1V1h87.615v143zM40.958 76.625L67.036 117h12.912L51.54 74.42a31.085 31.085 0 008.377-3.283 24.393 24.393 0 006.362-5.315 22.755 22.755 0 004.016-6.779 22.025 22.025 0 001.339-7.677 24.644 24.644 0 00-1.835-9.755 19.594 19.594 0 00-5.5-7.346 24.676 24.676 0 00-8.669-4.606 38.75 38.75 0 00-11.33-1.535H19.165V117h10.33V76.625h11.463zm1.575-9.007H29.495V37.131h13.29a30.424 30.424 0 017.937.929 15.159 15.159 0 015.669 2.787 11.559 11.559 0 013.4 4.645 17.261 17.261 0 011.134 6.5 14.743 14.743 0 01-1.275 6.165 14.83 14.83 0 01-3.827 5.016 17.178 17.178 0 01-5.873 3.33 23.422 23.422 0 01-7.417 1.114z" stroke="#000" stroke-width="2"/></svg>